<svg width="40" height="40" viewBox="0 0 40 40" fill="none" xmlns="http://www.w3.org/2000/svg">
<path d="M21.5105 2.4659C23.5161 0.894708 25.8426 0.109111 28.4699 0.109111C29.9139 0.109111 31.4983 0.523732 33.2231 1.39662C34.9479 2.24768 36.3116 3.2515 37.3144 4.40807C39.3802 7.20131 40.2426 10.4528 39.9417 14.1626C39.6208 17.8723 38.4977 20.7747 36.5523 22.826L21.33 39.389C20.949 39.8036 20.4676 40 19.9061 40C19.3445 40 18.8832 39.8036 18.5022 39.389C18.3167 39.1903 18.1711 38.952 18.0745 38.6891C17.9778 38.4263 17.9323 38.1444 17.9406 37.8614C17.9406 37.2504 18.1211 36.7267 18.5022 36.3121L27.7077 26.2957C28.2091 25.8156 28.2091 25.3137 27.7077 24.7681C27.2064 24.2226 26.7451 24.2226 26.3039 24.7681L17.0983 34.7845C16.9127 34.9879 16.6903 35.1473 16.4452 35.2525C16.2001 35.3576 15.9376 35.4063 15.6743 35.3955C15.1128 35.3955 14.6515 35.1991 14.2704 34.7845C14.085 34.5858 13.9394 34.3476 13.8427 34.0847C13.7461 33.8218 13.7005 33.54 13.7089 33.257C13.7089 32.6459 13.8894 32.1222 14.2704 31.7076L23.476 21.6912C24.0175 21.1457 24.0175 20.6001 23.476 20.0546C23.0147 19.509 22.5735 19.509 22.0721 20.0546L12.8665 30.18C12.6788 30.3803 12.456 30.5376 12.2115 30.6426C11.9669 30.7475 11.7054 30.798 11.4426 30.7911C10.881 30.7911 10.3997 30.5947 9.9785 30.18C9.57738 29.7654 9.37683 29.2635 9.37683 28.6525C9.37683 28.0415 9.59744 27.4959 10.0387 27.0158L19.2643 16.9776C19.7657 16.4321 19.7657 15.9302 19.2643 15.4501C18.7629 14.97 18.2816 14.97 17.8403 15.4501L8.53449 25.5101C8.09326 25.9465 7.63198 26.1866 7.13059 26.1866C6.56903 26.1866 6.08769 25.9684 5.72669 25.5101C5.34563 25.0737 5.14507 24.5499 5.14507 23.9389C5.14507 23.3279 5.34563 22.826 5.72669 22.4113C11.8637 15.6901 15.6543 11.6312 17.0983 10.1255L24.2381 17.8069C25.0203 18.6143 25.9228 19.0289 27.0259 19.0289C28.4298 19.0289 29.5328 18.4179 30.3551 17.1959C30.9167 16.3011 31.1172 15.3191 30.9568 14.228C30.7963 13.1369 30.3752 12.2204 29.6933 11.4566L21.5105 2.4659ZM25.642 16.2793L17.0983 6.96127L2.89883 22.4113C1.21415 20.5565 0.251478 17.7196 0.0308647 13.8571C-0.189748 10.0164 0.772926 6.67758 2.89883 3.88434C5.28546 1.30933 8.13337 0 11.4426 0C14.7718 0 17.5997 1.30933 19.9061 3.88434L28.4699 13.2024C28.8509 13.617 29.0314 14.1189 29.0314 14.73C29.0314 15.341 28.8509 15.8647 28.4699 16.2793C28.0888 16.6721 27.6275 16.8903 27.0259 16.8903C26.4844 16.8903 26.0231 16.6721 25.642 16.2793Z" fill="#F53538"/>
</svg>
