<svg width="26" height="26" viewBox="0 0 26 26" fill="none" xmlns="http://www.w3.org/2000/svg">
<path d="M13.4043 8.99646C12.2342 8.99646 11.1119 9.46131 10.2845 10.2888C9.45704 11.1162 8.99219 12.2384 8.99219 13.4086C8.99219 14.5788 9.45704 15.701 10.2845 16.5285C11.1119 17.3559 12.2342 17.8208 13.4043 17.8208C14.5745 17.8208 15.6968 17.3559 16.5242 16.5285C17.3516 15.701 17.8165 14.5788 17.8165 13.4086C17.8165 12.2384 17.3516 11.1162 16.5242 10.2888C15.6968 9.46131 14.5745 8.99646 13.4043 8.99646Z" fill="#D6CECE"/>
<path fill-rule="evenodd" clip-rule="evenodd" d="M6.30384 1.30173C11.0228 0.778654 15.7852 0.778654 20.5042 1.30173C23.0823 1.58954 25.1607 3.61913 25.4635 6.20669C26.0231 10.9917 26.0231 15.8257 25.4635 20.6107C25.1607 23.1982 23.0823 25.2278 20.5056 25.517C15.7861 26.0402 11.0233 26.0402 6.30384 25.517C3.72578 25.2278 1.64732 23.1982 1.34458 20.612C0.784881 15.8266 0.784881 10.9922 1.34458 6.20669C1.64732 3.61913 3.72578 1.58954 6.30384 1.30173ZM20.192 5.26317C19.8319 5.26317 19.4866 5.4062 19.232 5.6608C18.9774 5.9154 18.8344 6.2607 18.8344 6.62076C18.8344 6.98081 18.9774 7.32612 19.232 7.58072C19.4866 7.83531 19.8319 7.97834 20.192 7.97834C20.552 7.97834 20.8973 7.83531 21.1519 7.58072C21.4065 7.32612 21.5495 6.98081 21.5495 6.62076C21.5495 6.2607 21.4065 5.9154 21.1519 5.6608C20.8973 5.4062 20.552 5.26317 20.192 5.26317ZM6.95548 13.4087C6.95548 11.6984 7.63488 10.0582 8.84421 8.84889C10.0536 7.63955 11.6938 6.96015 13.404 6.96015C15.1143 6.96015 16.7545 7.63955 17.9638 8.84889C19.1732 10.0582 19.8526 11.6984 19.8526 13.4087C19.8526 15.1189 19.1732 16.7592 17.9638 17.9685C16.7545 19.1778 15.1143 19.8572 13.404 19.8572C11.6938 19.8572 10.0536 19.1778 8.84421 17.9685C7.63488 16.7592 6.95548 15.1189 6.95548 13.4087Z" fill="#D6CECE"/>
</svg>
