<svg width="255" height="272" viewBox="0 0 255 272" fill="none" xmlns="http://www.w3.org/2000/svg">
<path d="M0.211914 253.693H7.05435L11.2068 266.706L15.3272 253.693H22.0949V271.627H18.1026V256.949L13.4911 271.627H8.80499L4.2149 256.949V271.627H0.211914V253.693Z" fill="#1D1D1B"/>
<path d="M31.8193 253.693H37.178L43.9671 271.627H39.5905L38.2561 267.858H30.6451L29.3108 271.627H25.0303L31.8193 253.693ZM37.1246 264.581L34.5093 257.227H34.3599L31.7446 264.581H37.1246Z" fill="#1D1D1B"/>
<path d="M46.914 253.693H50.9597V265.531L59.1044 253.693H63.4063V271.626H59.3606V259.746L51.1838 271.626H46.9033V253.693H46.914ZM50.031 247.619V247.416H52.9772V247.598C52.9772 248.804 53.8525 249.647 55.1548 249.647C56.4571 249.647 57.3324 248.804 57.3324 247.598V247.416H60.2786V247.619C60.2786 250.309 58.2504 252.305 55.1548 252.305C52.0592 252.305 50.031 250.309 50.031 247.619Z" fill="#1D1D1B"/>
<path d="M66.9707 262.628C66.9707 257.226 70.8349 253.298 76.2149 253.298C80.9758 253.298 84.6159 256.554 85.0001 261.005H80.8477C80.3567 258.721 78.5633 257.216 76.1829 257.216C73.2367 257.216 71.1658 259.468 71.1658 262.649C71.1658 265.83 73.2367 268.082 76.1829 268.082C78.5954 268.082 80.3887 266.567 80.8477 264.293H85.0001C84.5945 268.776 80.9545 272 76.2149 272C70.8563 272 66.9707 268.082 66.9707 262.628Z" fill="#1D1D1B"/>
<path d="M92.7179 257.611H86.2598V253.693H103.243V257.611H96.817V271.627H92.7179V257.611Z" fill="#1D1D1B"/>
<path d="M106.446 253.693H118.818V257.28H110.471V260.941H116.16V264.379H110.471V268.04H119.565V271.627H106.446V253.693Z" fill="#1D1D1B"/>
<path d="M123.302 253.693H130.454C134.862 253.693 137.552 255.892 137.552 259.532C137.552 263.172 134.862 265.371 130.454 265.371H127.358V271.627H123.312V253.693H123.302ZM130.496 262.116C132.311 262.116 133.443 261.144 133.443 259.66C133.443 258.177 132.311 257.205 130.496 257.205H127.347V262.126H130.496V262.116Z" fill="#1D1D1B"/>
<path d="M140.744 253.693H144.843V260.717H152.636V253.693H156.735V271.627H152.636V264.603H144.843V271.627H140.744V253.693Z" fill="#1D1D1B"/>
<path d="M164.441 264.656C162.189 263.781 160.876 261.966 160.876 259.458C160.876 255.871 163.587 253.693 167.996 253.693H175.681V271.627H171.636V265.275H168.615L164.185 271.627H159.573L164.441 264.656ZM171.636 261.987V257.269H167.867C166.095 257.269 164.975 258.187 164.975 259.628C164.975 261.069 166.106 261.987 167.867 261.987H171.636Z" fill="#1D1D1B"/>
<path d="M195.825 269.396H193.882C188.865 269.396 185.759 266.727 185.759 262.478C185.759 258.23 188.854 255.583 193.882 255.583H195.825V253.426H199.924V255.583H201.867C206.884 255.583 209.99 258.251 209.99 262.478C209.99 266.706 206.895 269.396 201.867 269.396H199.924V271.627H195.825V269.396ZM195.825 265.809V259.169H193.904C191.32 259.169 189.954 260.376 189.954 262.478C189.954 264.581 191.31 265.809 193.904 265.809H195.825ZM201.845 265.809C204.429 265.809 205.816 264.603 205.816 262.478C205.816 260.354 204.429 259.169 201.845 259.169H199.924V265.809H201.845Z" fill="#1D1D1B"/>
<path d="M213.65 253.693H220.802C225.211 253.693 227.901 255.892 227.901 259.532C227.901 263.172 225.211 265.371 220.802 265.371H217.707V271.627H213.661V253.693H213.65ZM220.845 262.116C222.66 262.116 223.791 261.144 223.791 259.66C223.791 258.177 222.66 257.205 220.845 257.205H217.696V262.126H220.845V262.116Z" fill="#1D1D1B"/>
<path d="M231.094 253.693H243.466V257.28H235.118V260.941H240.808V264.379H235.118V268.04H244.213V271.627H231.094V253.693Z" fill="#1D1D1B"/>
<path d="M252.23 252.231H251.995L249.999 247.544L247.971 252.231H247.736L245.687 247.416H254.29L252.219 252.231H252.23ZM247.95 253.693H252.049V271.626H247.95V253.693Z" fill="#1D1D1B"/>
<path d="M178.671 265.809V260.941L183.485 263.247V263.503L178.671 265.809Z" fill="#1D1D1B"/>
<path d="M229.845 208.422H210.406C209.51 208.422 208.784 209.159 208.784 210.045V214.998C208.784 215.894 209.52 216.62 210.406 216.62H215.648V220.442C215.648 220.943 215.242 221.349 214.74 221.349H143.765V218.285C143.765 217.752 143.327 217.314 142.793 217.314H109.681C109.147 217.314 108.709 217.752 108.709 218.285V221.349H36.4312C35.9295 221.349 35.5239 220.943 35.5239 220.442V216.62H41.0747C41.9714 216.62 42.6972 215.884 42.6972 214.998V210.045C42.6972 209.148 41.9607 208.422 41.0747 208.422H21.6362C20.7395 208.422 20.0137 209.159 20.0137 210.045V214.998C20.0137 215.894 20.7502 216.62 21.6362 216.62H27.187V227.679C27.187 228.181 27.582 228.586 28.0837 228.586C36.3565 228.618 99.3048 228.981 108.688 233.55V236.987C108.688 237.521 109.125 237.959 109.659 237.959H142.772C143.306 237.959 143.743 237.521 143.743 236.987V233.945C150.009 228.64 214.655 228.565 223.056 228.586C223.557 228.586 223.952 228.181 223.952 227.679V216.62H229.813C230.709 216.62 231.435 215.884 231.435 214.998V210.045C231.435 209.148 230.699 208.422 229.813 208.422H229.845ZM127.411 228.896C127.187 231.308 126.867 233.721 126.482 236.123C126.461 236.261 126.237 236.272 126.216 236.123C125.778 232.803 124.977 228.533 125.009 225.288C125.041 225.074 125.084 224.85 125.127 224.637C123.504 226.035 121.754 227.284 119.821 228.223C121.188 225.384 123.227 222.961 125.426 220.741C125.949 220.217 126.792 220.217 127.315 220.741C129.439 222.993 131.35 225.363 132.663 228.223C130.763 227.263 129.119 226.024 127.571 224.658C127.795 226.035 127.689 227.444 127.411 228.907V228.896Z" fill="#DDC29B"/>
<path d="M62.7229 194.684C56.8945 191.994 40.3275 189.688 33.9014 188.866C37.4347 192.058 51.9522 194.588 56.158 196.765C52.4432 198.58 38.3954 200.683 35.193 203.33C41.0534 202.882 57.1827 201.131 62.6161 199.039C63.1498 198.826 63.6195 198.409 63.8864 197.844C64.4521 196.648 63.9184 195.228 62.7122 194.684H62.7229Z" fill="#1D1D1B"/>
<path d="M10.5342 191.225C13.4804 189.037 26.7276 186.592 29.0654 183.721C23.8348 184.927 8.52741 187.318 3.96935 190.03C2.26141 190.98 2.58164 193.776 4.50308 194.289C10.2567 195.997 26.7063 197.267 32.7588 196.968C29.1508 194.438 14.6653 192.634 10.5342 191.215V191.225Z" fill="#1D1D1B"/>
<path d="M249.358 194.684C243.529 191.994 226.962 189.688 220.536 188.866C224.069 192.058 238.587 194.588 242.793 196.765C239.078 198.58 225.03 200.683 221.828 203.33C227.688 202.882 243.817 201.131 249.251 199.039C249.785 198.826 250.254 198.409 250.521 197.844C251.087 196.648 250.553 195.228 249.347 194.684H249.358Z" fill="#1D1D1B"/>
<path d="M197.181 191.225C200.127 189.037 213.374 186.592 215.712 183.721C210.481 184.927 195.174 187.318 190.616 190.03C188.908 190.98 189.228 193.776 191.15 194.289C196.903 195.997 213.353 197.267 219.405 196.968C215.797 194.438 201.312 192.634 197.181 191.215V191.225Z" fill="#1D1D1B"/>
<path d="M126.653 57.109C138.235 46.2743 164.431 47.299 176.877 57.8242C166.918 57.8242 148.44 65.8515 144.907 68.1572C140.915 61.4322 129.375 57.173 126.643 57.109H126.653Z" fill="#DDC29B"/>
<path d="M72.7676 62.1263C80.5494 64.2613 87.6587 64.4748 93.7966 62.3932C104.268 58.8386 113.139 56.725 123.654 58.8172C130.848 60.2476 138.107 63.7702 142.387 69.7907C140.53 71.4133 133.325 75.2028 130.507 75.5017C129.898 75.5657 129.194 75.4163 128.649 75.1387C124.529 73.0999 123.974 72.6302 119.501 71.4453C115.028 70.2604 112.125 70.5166 109.019 71.061C99.3687 72.7476 98.5148 74.6584 90.701 72.4914C87.5733 71.6268 83.3568 68.4778 80.1544 67.8053C76.92 67.1221 73.9418 65.0832 72.7783 62.1263H72.7676Z" fill="#DDC29B"/>
<path d="M97.8639 90.5635C87.1999 96.4666 74.5078 100.491 62.2426 99.4128C55.5176 98.9004 44.4267 94.8013 43.0283 87.233C49.241 89.7202 59.0296 90.6809 66.4378 89.6348C71.8712 88.8662 77.1658 86.7847 82.7379 87.3718C87.7764 88.0016 94.1384 88.6528 99.0915 89.8163C98.91 89.9764 98.6004 90.2113 97.8745 90.5635H97.8639Z" fill="#DDC29B"/>
<path d="M48.9413 47.9396C49.3363 48.4627 49.5391 48.6335 49.6245 48.8576C52.6027 56.2445 56.3495 57.6215 63.4695 60.5143C66.7146 61.8273 68.9883 63.9302 71.1979 66.4067C74.8486 70.5058 79.4814 73.1851 84.4558 75.3627C85.0963 75.683 85.3631 75.6083 85.9075 76.3128C72.5963 79.3657 60.0109 73.7295 53.8623 66.1719C49.5711 60.8986 46.8704 54.9315 48.952 47.929L48.9413 47.9396Z" fill="#DDC29B"/>
<path d="M62.3701 104.995C70.0558 105.7 79.8124 104.163 88.9605 101.152C93.177 99.7648 102.806 101.515 109.616 103.896C108.089 104.814 95.8564 110.247 89.0353 112.297C80.9012 114.741 66.9281 112.126 62.3594 104.995H62.3701Z" fill="#DDC29B"/>
<path d="M89.8369 118.285C96.1136 116.375 101.462 114.795 107.269 110.674C113.94 105.935 121.295 103.928 127.422 105.134C125.725 108.636 121.284 113.759 117.42 116.065C108.902 121.168 99.0811 123.1 89.8369 118.285Z" fill="#DDC29B"/>
<path d="M128.297 82.1197C124.316 83.0804 121.829 83.913 118.103 85.0659C115.242 86.0907 111.688 85.8558 108.677 85.3648C101.931 84.2653 95.1421 83.4113 88.3637 82.4399C87.6165 82.3332 85.4815 81.8101 85.0332 81.5433C91.2779 78.8212 98.8995 77.1026 106.617 75.9284C114.655 74.7115 122.565 75.9925 128.287 82.1197H128.297Z" fill="#DDC29B"/>
<path d="M94.543 96.8292C98.1617 95.1533 103.648 92.965 106.99 91.9616C114.878 89.5919 122.916 87.9373 129.481 90.2644C134.978 92.2605 132.587 98.9962 127.271 100.202C118.732 101.729 103.446 97.6832 94.543 96.8292Z" fill="#DDC29B"/>
<path d="M80.3251 81.9488C55.1863 89.8587 42.0779 83.582 36.1321 68.8724C34.3708 64.6239 33.8264 55.7639 34.4135 48.3984C40.7222 53.6183 41.3627 60.6636 49.9024 70.0146C61.367 82.5679 80.3571 81.6072 80.3144 81.9488H80.3251Z" fill="#DDC29B"/>
<path d="M183.487 66.8551C179.281 65.8837 174.958 65.2112 170.624 65.5528C173.389 67.1754 176.399 68.2855 179.473 69.1395C177.285 70.8474 175.214 72.7155 173.474 74.9038C177.264 73.7936 180.733 71.8722 184.031 69.7373C184.352 69.5238 184.608 69.1822 184.704 68.7766C184.907 67.9119 184.362 67.0473 183.498 66.8551H183.487Z" fill="#DDC29B"/>
<path d="M167.601 62.6493C164.324 64.1651 161.485 66.4068 158.859 68.8192C157.866 69.6839 158.464 71.4772 159.798 71.5519C163.823 71.8828 167.922 71.8935 171.861 70.8581C169.139 69.6945 166.256 69.0541 163.342 68.6911C164.975 66.8444 166.459 64.8589 167.601 62.6493Z" fill="#DDC29B"/>
<path d="M157.183 76.0245C152.871 75.907 148.494 76.0992 144.31 77.3054C147.341 78.3408 150.501 78.8319 153.682 79.056C151.867 81.1589 150.223 83.4113 148.953 85.8985C152.454 84.0624 155.475 81.4792 158.272 78.7465C158.55 78.4689 158.731 78.0953 158.742 77.6683C158.774 76.7824 158.069 76.0351 157.183 76.0245Z" fill="#DDC29B"/>
<path d="M136.987 82.1836C138.225 80.0487 139.282 77.807 139.965 75.4159C137.061 77.5508 134.713 80.3155 132.621 83.1977C131.82 84.2438 132.759 85.8877 134.083 85.6849C138.086 85.2152 142.11 84.4039 145.772 82.6106C142.879 82.0021 139.922 81.9594 136.997 82.1729L136.987 82.1836Z" fill="#DDC29B"/>
<path d="M110.353 122.256C108.357 129.846 104.568 138.93 93.5836 147.544C85.9832 153.512 70.7933 161.219 72.3731 180.23C75.2232 182.707 78.4043 185.044 81.8415 187.297C81.8415 187.297 76.8351 169.47 99.2305 155.689C118.52 143.808 120.708 129.675 122.8 118.285C122.8 118.285 114.559 121.541 110.353 122.256Z" fill="#DDC29B"/>
<path d="M91.811 121.424C91.3413 121.957 90.8823 122.502 90.4553 123.068C82.2251 133.913 82.2251 144.705 82.8122 153.17C85.4702 150.523 89.0676 148.26 92.9745 145.356C93.0919 141.567 93.3908 136.016 95.8673 131.682C97.4472 128.917 101.322 125.267 104.247 123.164C99.1978 123.591 95.0454 123.281 91.8216 121.424H91.811Z" fill="#DDC29B"/>
<path d="M96.796 160.386C99.9877 170.73 101.023 187.308 96.0168 195.645C91.3199 193.179 88.0215 190.894 88.0215 190.894C88.0215 190.894 90.7542 182.611 88.4485 169.727C88.4698 166.012 96.796 160.386 96.796 160.386Z" fill="#DDC29B"/>
<path d="M81.8091 135.194C65.8185 140.595 59.7233 152.957 57.5137 160.824C58.9761 166.343 64.1106 171.947 64.1106 171.947C64.1106 171.947 65.968 156.896 80.2933 149.317C79.9517 143.67 80.9018 138.514 81.8091 135.194Z" fill="#DDC29B"/>
<path d="M198.888 115.008C196.689 111.966 194.458 108.934 192.281 105.871C190.285 103.074 189.676 100.053 190.445 96.6159C192.313 88.247 188.438 77.1133 186.976 74.3806C183.944 74.6688 159.584 82.6108 149.049 89.8802C149.049 89.8802 149.049 89.8802 149.038 89.8802C142.985 93.4989 138.95 96.6906 130.507 104.91C129.909 106.928 128.553 112.574 125.137 117.506C129.717 116.15 137.573 111.656 141.47 108.305C141.299 111.08 141.171 114.08 140.979 117.229C134.222 123.825 122.81 127.327 122.81 127.327C122.81 127.327 121.593 134.82 118.071 139.4C125.543 138.418 134.382 134.393 139.431 130.679C139.025 132.835 138.523 135.012 137.894 137.211C135.684 144.812 133.079 151.601 130.293 157.664C120.195 172.875 105.816 179.846 101.482 198.665C135.94 214.047 172.8 204.376 181.82 195.89C177.785 191.257 160.428 175.16 162.573 162.873C163.609 156.671 167.772 149.423 171.711 149.615C178.382 149.936 193.316 153.138 190.936 141.93C190.509 139.752 190.285 136.849 192.729 135.696C195.697 134.287 194.683 131.639 193.188 130.924C192.473 130.572 192.057 130.262 192.964 129.771C194.747 128.811 195.515 127.572 193.861 125.042C192.302 122.651 192.932 121.68 195.28 120.004C196.241 119.321 197.255 118.68 198.259 118.072C199.753 117.165 199.935 116.407 198.92 114.998L198.888 115.008ZM162.723 117.656C158.581 112.286 149.027 105.625 149.027 105.625C160.236 110.578 165.808 113.364 167.59 119.001C169.362 124.637 170.163 137.222 170.163 137.222C170.163 137.222 168.38 124.978 162.723 117.656ZM180.24 103.597C177.166 103.768 166.736 100.213 166.736 100.213C166.736 100.213 176.792 96.7013 180.24 96.7013C183.869 96.7013 183.912 103.394 180.24 103.597Z" fill="#DDC29B"/>
<path d="M132.29 137.222C128.853 138.653 125.448 139.955 121.829 140.595C121.829 140.595 120.889 146.573 114.666 153.843C108.112 161.486 100.181 164.101 100.181 164.101C101.035 167.816 101.504 171.306 101.376 174.445C101.376 174.445 112.99 171.712 121.839 161.336C132.279 149.103 132.279 137.222 132.279 137.222H132.29Z" fill="#DDC29B"/>
<path d="M132.899 121.061C133.145 119.107 133.209 117.592 133.123 115.83C130.967 117.036 128.159 118.296 124.84 119.225C124.637 121.039 124.253 123.057 123.729 124.946C126.035 124.423 131.063 122.246 132.899 121.061Z" fill="#DDC29B"/>
<path d="M20.3028 108.433C19.8011 110.931 19.4274 113.439 19.1499 115.969C14.9655 117.666 11.0906 120.047 7.38647 122.609C6.4898 123.217 6.47913 124.616 7.38647 125.224C11.0372 127.754 14.8374 130.113 18.9471 131.832C19.214 135.087 19.6516 138.333 20.3028 141.546C22.5231 130.647 22.5017 119.332 20.3028 108.422V108.433ZM11.0158 123.932C13.866 121.819 16.62 119.535 19.0432 116.93C18.5948 121.531 18.5521 126.174 18.8724 130.786C16.4919 128.245 13.8126 126.014 11.0265 123.932H11.0158Z" fill="#DDC29B"/>
<path d="M245.535 122.619C241.831 120.057 237.956 117.677 233.772 115.98C233.494 113.45 233.121 110.93 232.619 108.443C230.42 119.342 230.399 130.657 232.619 141.567C233.27 138.354 233.708 135.108 233.975 131.853C238.085 130.134 241.895 127.775 245.535 125.245C246.432 124.637 246.432 123.238 245.535 122.63V122.619ZM234.06 130.785C234.38 126.174 234.327 121.541 233.889 116.93C236.313 119.534 239.056 121.808 241.917 123.932C239.131 126.014 236.451 128.245 234.071 130.785H234.06Z" fill="#DDC29B"/>
<path d="M0.393555 118.638C1.05538 81.4579 20.6326 45.5698 50.7244 23.9217C68.6791 10.8986 90.2739 2.80727 112.413 1.34485C52.8807 10.1301 6.41404 58.753 0.393555 118.638Z" fill="#1D1D1B"/>
<path d="M55.0371 44.9615C71.0277 31.6823 90.8612 23.1532 111.453 20.8262C91.2454 24.178 72.1485 33.5397 57.1507 47.374L55.0478 44.9615H55.0371Z" fill="#1D1D1B"/>
<path d="M21.9883 103.159C23.6215 93.5629 26.589 84.1158 30.8269 75.1812L33.645 76.7076C28.6065 84.8737 24.6569 93.7977 21.9883 103.159Z" fill="#1D1D1B"/>
<path d="M252.934 128.683C253.244 146.702 249.657 164.902 242.334 181.629L239.441 180.263C247.543 164.411 252.187 146.702 252.945 128.693L252.934 128.683Z" fill="#1D1D1B"/>
<path d="M232.172 145.324C230.731 156.864 227.358 168.243 222.202 178.853L219.384 177.327C225.319 167.528 229.674 156.682 232.172 145.324Z" fill="#1D1D1B"/>
<path d="M0.137584 128.683C0.895482 146.691 5.53894 164.411 13.641 180.252L10.7482 181.618C3.41469 164.902 -0.17198 146.701 0.137584 128.683Z" fill="#1D1D1B"/>
<path d="M20.9004 145.324C23.3983 156.682 27.7535 167.528 33.6886 177.327L30.8705 178.853C25.704 168.243 22.3415 156.864 20.9004 145.324Z" fill="#1D1D1B"/>
<path d="M133.943 0C131.734 6.73569 131.744 14.0905 133.943 20.8262C136.132 14.0905 136.153 6.73569 133.943 0Z" fill="#DDC29B"/>
<path d="M133.943 0C131.21 2.2737 128.734 4.86763 126.535 7.68573C124.347 4.86763 121.87 2.2737 119.127 0C116.938 6.73569 116.917 14.0905 119.127 20.8262C121.87 18.5525 124.347 15.9586 126.535 13.1405C128.734 15.9479 131.21 18.5418 133.943 20.8262C132.566 17.1541 130.719 13.6635 128.52 10.4184C130.719 7.16267 132.566 3.67207 133.943 0.0106746V0ZM119.127 20.8262C121.336 14.1012 121.315 6.73569 119.127 0.0106746C120.504 3.68275 122.351 7.17335 124.549 10.4184C122.351 13.6635 120.504 17.1541 119.127 20.8262Z" fill="#DDC29B"/>
<path d="M140.658 1.34485C185.214 4.0989 226.215 34.244 243.295 75.32C249.059 88.8768 252.283 103.544 252.646 118.253C251.023 103.682 247.074 89.5066 241.01 76.3341C222.906 36.4217 183.987 7.68558 140.658 1.34485Z" fill="#1D1D1B"/>
<path d="M141.618 20.8262C163.245 22.4487 184.189 32.1199 200.243 46.6481C216.17 61.3897 227.56 81.3193 231.2 102.743C228.061 92.4422 223.77 82.5789 218.23 73.5054C201.535 45.9436 173.236 26.9427 141.618 20.8368V20.8262Z" fill="#1D1D1B"/>
</svg>
