<svg width="255" height="272" viewBox="0 0 255 272" fill="none" xmlns="http://www.w3.org/2000/svg">
<path d="M0.212891 253.693H7.05532L11.2077 266.705L15.3281 253.693H22.0959V271.626H18.1035V256.949L13.4921 271.626H8.80596L4.21587 256.949V271.626H0.212891V253.693Z" fill="#656565"/>
<path d="M31.8203 253.693H37.179L43.968 271.626H39.5914L38.2571 267.858H30.6461L29.3118 271.626H25.0312L31.8203 253.693ZM37.1256 264.581L34.5103 257.226H34.3609L31.7456 264.581H37.1256Z" fill="#656565"/>
<path d="M46.915 253.693H50.9607V265.531L59.1054 253.693H63.4073V271.626H59.3616V259.745L51.1848 271.626H46.9043V253.693H46.915ZM50.032 247.619V247.416H52.9782V247.598C52.9782 248.804 53.8535 249.647 55.1558 249.647C56.4581 249.647 57.3334 248.804 57.3334 247.598V247.416H60.2796V247.619C60.2796 250.309 58.2514 252.305 55.1558 252.305C52.0601 252.305 50.032 250.309 50.032 247.619Z" fill="#656565"/>
<path d="M66.9717 262.628C66.9717 257.226 70.8359 253.298 76.2159 253.298C80.9768 253.298 84.6168 256.554 85.0011 261.005H80.8487C80.3576 258.721 78.5643 257.216 76.1839 257.216C73.2377 257.216 71.1668 259.468 71.1668 262.649C71.1668 265.83 73.2377 268.082 76.1839 268.082C78.5963 268.082 80.3897 266.567 80.8487 264.293H85.0011C84.5955 268.776 80.9554 272 76.2159 272C70.8572 272 66.9717 268.082 66.9717 262.628Z" fill="#656565"/>
<path d="M92.7189 257.611H86.2607V253.693H103.244V257.611H96.8179V271.626H92.7189V257.611Z" fill="#656565"/>
<path d="M106.447 253.693H118.819V257.28H110.472V260.941H116.161V264.378H110.472V268.04H119.566V271.626H106.447V253.693Z" fill="#656565"/>
<path d="M123.303 253.693H130.455C134.863 253.693 137.553 255.892 137.553 259.532C137.553 263.172 134.863 265.371 130.455 265.371H127.359V271.626H123.313V253.693H123.303ZM130.497 262.115C132.312 262.115 133.444 261.144 133.444 259.66C133.444 258.176 132.312 257.205 130.497 257.205H127.348V262.126H130.497V262.115Z" fill="#656565"/>
<path d="M140.744 253.693H144.843V260.717H152.636V253.693H156.735V271.626H152.636V264.603H144.843V271.626H140.744V253.693Z" fill="#656565"/>
<path d="M164.442 264.656C162.189 263.781 160.877 261.966 160.877 259.457C160.877 255.871 163.588 253.693 167.996 253.693H175.682V271.626H171.637V265.275H168.616L164.186 271.626H159.574L164.442 264.656ZM171.637 261.987V257.269H167.868C166.096 257.269 164.976 258.187 164.976 259.628C164.976 261.069 166.107 261.987 167.868 261.987H171.637Z" fill="#656565"/>
<path d="M195.826 269.395H193.883C188.866 269.395 185.76 266.727 185.76 262.478C185.76 258.23 188.855 255.583 193.883 255.583H195.826V253.426H199.925V255.583H201.868C206.885 255.583 209.991 258.251 209.991 262.478C209.991 266.705 206.896 269.395 201.868 269.395H199.925V271.626H195.826V269.395ZM195.826 265.809V259.169H193.904C191.321 259.169 189.955 260.375 189.955 262.478C189.955 264.581 191.311 265.809 193.904 265.809H195.826ZM201.846 265.809C204.43 265.809 205.817 264.603 205.817 262.478C205.817 260.354 204.43 259.169 201.846 259.169H199.925V265.809H201.846Z" fill="#656565"/>
<path d="M213.652 253.693H220.804C225.213 253.693 227.903 255.892 227.903 259.532C227.903 263.172 225.213 265.371 220.804 265.371H217.709V271.626H213.663V253.693H213.652ZM220.847 262.115C222.662 262.115 223.793 261.144 223.793 259.66C223.793 258.176 222.662 257.205 220.847 257.205H217.698V262.126H220.847V262.115Z" fill="#656565"/>
<path d="M231.094 253.693H243.466V257.28H235.118V260.941H240.808V264.378H235.118V268.04H244.213V271.626H231.094V253.693Z" fill="#656565"/>
<path d="M252.23 252.231H251.995L249.999 247.544L247.971 252.231H247.736L245.687 247.416H254.29L252.219 252.231H252.23ZM247.95 253.693H252.049V271.626H247.95V253.693Z" fill="#656565"/>
<path d="M178.671 265.809V260.941L183.485 263.247V263.503L178.671 265.809Z" fill="#656565"/>
<path d="M229.845 208.422H210.406C209.51 208.422 208.784 209.158 208.784 210.044V214.997C208.784 215.894 209.52 216.62 210.406 216.62H215.647V220.441C215.647 220.943 215.242 221.349 214.74 221.349H143.765V218.285C143.765 217.751 143.327 217.314 142.793 217.314H109.68C109.147 217.314 108.709 217.751 108.709 218.285V221.349H36.4312C35.9295 221.349 35.5239 220.943 35.5239 220.441V216.62H41.0747C41.9714 216.62 42.6972 215.883 42.6972 214.997V210.044C42.6972 209.148 41.9607 208.422 41.0747 208.422H21.6362C20.7395 208.422 20.0137 209.158 20.0137 210.044V214.997C20.0137 215.894 20.7502 216.62 21.6362 216.62H27.187V227.679C27.187 228.18 27.582 228.586 28.0837 228.586C36.3565 228.618 99.3047 228.981 108.688 233.55V236.987C108.688 237.521 109.125 237.958 109.659 237.958H142.772C143.306 237.958 143.743 237.521 143.743 236.987V233.945C150.009 228.639 214.655 228.565 223.056 228.586C223.557 228.586 223.952 228.18 223.952 227.679V216.62H229.813C230.709 216.62 231.435 215.883 231.435 214.997V210.044C231.435 209.148 230.699 208.422 229.813 208.422H229.845ZM127.411 228.896C127.187 231.308 126.867 233.721 126.482 236.122C126.461 236.261 126.237 236.272 126.215 236.122C125.778 232.803 124.977 228.533 125.009 225.288C125.041 225.074 125.084 224.85 125.127 224.637C123.504 226.035 121.753 227.284 119.821 228.223C121.188 225.384 123.227 222.961 125.426 220.74C125.949 220.217 126.792 220.217 127.315 220.74C129.439 222.993 131.35 225.362 132.663 228.223C130.763 227.262 129.119 226.024 127.571 224.658C127.795 226.035 127.689 227.444 127.411 228.906V228.896Z" fill="#C39969"/>
<path d="M62.7228 194.684C56.8945 191.994 40.3275 189.688 33.9014 188.866C37.4347 192.058 51.9522 194.588 56.1579 196.765C52.4432 198.58 38.3954 200.683 35.193 203.33C41.0534 202.882 57.1827 201.131 62.6161 199.039C63.1498 198.825 63.6195 198.409 63.8864 197.843C64.4521 196.648 63.9184 195.228 62.7122 194.684H62.7228Z" fill="#656565"/>
<path d="M10.5342 191.225C13.4804 189.037 26.7276 186.592 29.0654 183.721C23.8348 184.927 8.52741 187.318 3.96935 190.029C2.26141 190.979 2.58164 193.776 4.50308 194.289C10.2567 195.997 26.7063 197.267 32.7588 196.968C29.1508 194.438 14.6653 192.634 10.5342 191.214V191.225Z" fill="#656565"/>
<path d="M249.358 194.684C243.529 191.994 226.962 189.688 220.536 188.866C224.069 192.058 238.587 194.588 242.793 196.765C239.078 198.58 225.03 200.683 221.828 203.33C227.688 202.882 243.817 201.131 249.251 199.039C249.785 198.825 250.254 198.409 250.521 197.843C251.087 196.648 250.553 195.228 249.347 194.684H249.358Z" fill="#656565"/>
<path d="M197.181 191.225C200.127 189.037 213.374 186.592 215.712 183.721C210.481 184.927 195.174 187.318 190.616 190.029C188.908 190.979 189.228 193.776 191.15 194.289C196.903 195.997 213.353 197.267 219.405 196.968C215.797 194.438 201.312 192.634 197.181 191.214V191.225Z" fill="#656565"/>
<path d="M126.655 57.0661C138.237 46.2314 164.433 47.2562 176.879 57.7813C166.92 57.7813 148.442 65.8087 144.909 68.1144C140.916 61.3894 129.377 57.1302 126.645 57.0661H126.655Z" fill="#C39969"/>
<path d="M72.7695 62.0835C80.5513 64.2184 87.6606 64.4319 93.7985 62.3504C104.27 58.7957 113.141 56.6821 123.655 58.7744C130.85 60.2048 138.109 63.7274 142.389 69.7479C140.532 71.3704 133.327 75.1599 130.509 75.4588C129.9 75.5228 129.196 75.3734 128.651 75.0959C124.531 73.057 123.976 72.5873 119.503 71.4024C115.03 70.2176 112.127 70.4737 109.021 71.0182C99.3707 72.7047 98.5167 74.6155 90.7029 72.4486C87.5752 71.5839 83.3588 68.4349 80.1564 67.7624C76.922 67.0792 73.9437 65.0404 72.7802 62.0835H72.7695Z" fill="#C39969"/>
<path d="M97.8648 90.5207C87.2009 96.4237 74.5088 100.448 62.2436 99.3699C55.5186 98.8575 44.4277 94.7585 43.0293 87.1902C49.2419 89.6774 59.0306 90.6381 66.4387 89.592C71.8721 88.8234 77.1667 86.7418 82.7389 87.329C87.7773 87.9588 94.1394 88.6099 99.0924 89.7734C98.9109 89.9336 98.6014 90.1684 97.8755 90.5207H97.8648Z" fill="#C39969"/>
<path d="M48.9442 47.8968C49.3392 48.4198 49.542 48.5906 49.6274 48.8148C52.6056 56.2016 56.3524 57.5787 63.4724 60.4715C66.7175 61.7845 68.9912 63.8874 71.2008 66.3639C74.8515 70.4629 79.4843 73.1423 84.4587 75.3199C85.0992 75.6401 85.366 75.5654 85.9105 76.2699C72.5992 79.3229 60.0138 73.6867 53.8652 66.129C49.574 60.8558 46.8734 54.8887 48.9549 47.8861L48.9442 47.8968Z" fill="#C39969"/>
<path d="M62.372 104.953C70.0577 105.657 79.8143 104.12 88.9625 101.11C93.1789 99.7222 102.807 101.473 109.618 103.853C108.091 104.771 95.8583 110.205 89.0372 112.254C80.9031 114.699 66.9301 112.083 62.3613 104.953H62.372Z" fill="#C39969"/>
<path d="M89.8379 118.243C96.1146 116.332 101.463 114.752 107.27 110.632C113.941 105.892 121.296 103.885 127.423 105.091C125.726 108.593 121.285 113.717 117.421 116.022C108.903 121.125 99.0821 123.057 89.8379 118.243Z" fill="#C39969"/>
<path d="M128.298 82.0768C124.317 83.0376 121.83 83.8702 118.104 85.023C115.243 86.0478 111.689 85.813 108.678 85.3219C101.932 84.2224 95.143 83.3685 88.3647 82.3971C87.6174 82.2903 85.4825 81.7673 85.0342 81.5004C91.2788 78.7784 98.9005 77.0598 106.618 75.8856C114.656 74.6687 122.566 75.9496 128.288 82.0768H128.298Z" fill="#C39969"/>
<path d="M94.5459 96.7864C98.1646 95.1105 103.651 92.9222 106.993 91.9188C114.881 89.549 122.919 87.8944 129.484 90.2215C134.981 92.2177 132.59 98.9533 127.274 100.16C118.735 101.686 103.449 97.6404 94.5459 96.7864Z" fill="#C39969"/>
<path d="M80.327 81.906C55.1883 89.8159 42.0799 83.5393 36.1341 68.8296C34.3728 64.5811 33.8284 55.7212 34.4155 48.3557C40.7242 53.5756 41.3647 60.6209 49.9043 69.9718C61.3689 82.5252 80.359 81.5645 80.3163 81.906H80.327Z" fill="#C39969"/>
<path d="M183.486 66.8124C179.28 65.841 174.957 65.1685 170.623 65.5101C173.388 67.1326 176.398 68.2428 179.472 69.0968C177.284 70.8047 175.213 72.6728 173.473 74.8611C177.263 73.7509 180.732 71.8295 184.03 69.6946C184.351 69.4811 184.607 69.1395 184.703 68.7338C184.906 67.8692 184.361 67.0046 183.497 66.8124H183.486Z" fill="#C39969"/>
<path d="M167.602 62.6064C164.325 64.1222 161.486 66.3639 158.86 68.7764C157.867 69.641 158.465 71.4344 159.799 71.5091C163.824 71.84 167.923 71.8507 171.862 70.8152C169.14 69.6517 166.257 69.0112 163.343 68.6483C164.976 66.8016 166.46 64.8161 167.602 62.6064Z" fill="#C39969"/>
<path d="M157.183 75.9817C152.871 75.8643 148.494 76.0564 144.31 77.2627C147.341 78.2981 150.501 78.7891 153.682 79.0133C151.867 81.1162 150.223 83.3686 148.953 85.8558C152.454 84.0197 155.475 81.4365 158.272 78.7038C158.55 78.4262 158.731 78.0526 158.742 77.6256C158.774 76.7396 158.069 75.9924 157.183 75.9817Z" fill="#C39969"/>
<path d="M136.988 82.1409C138.226 80.0059 139.283 77.7643 139.966 75.3732C137.062 77.5081 134.714 80.2728 132.622 83.155C131.821 84.2011 132.76 85.845 134.084 85.6422C138.087 85.1725 142.111 84.3612 145.773 82.5679C142.88 81.9594 139.923 81.9167 136.998 82.1302L136.988 82.1409Z" fill="#C39969"/>
<path d="M110.353 122.213C108.357 129.803 104.568 138.887 93.5836 147.501C85.9832 153.469 70.7933 161.176 72.3731 180.187C75.2232 182.664 78.4043 185.001 81.8415 187.254C81.8415 187.254 76.8351 169.427 99.2304 155.646C118.519 143.765 120.708 129.632 122.8 118.242C122.8 118.242 114.559 121.498 110.353 122.213Z" fill="#C39969"/>
<path d="M91.8109 121.381C91.3413 121.915 90.8823 122.459 90.4553 123.025C82.2251 133.87 82.2251 144.662 82.8122 153.127C85.4702 150.48 89.0676 148.217 92.9745 145.313C93.0919 141.524 93.3908 135.973 95.8673 131.639C97.4471 128.875 101.322 125.224 104.247 123.121C99.1978 123.548 95.0454 123.238 91.8216 121.381H91.8109Z" fill="#C39969"/>
<path d="M96.797 160.343C99.9887 170.687 101.024 187.265 96.0177 195.602C91.3209 193.136 88.0225 190.851 88.0225 190.851C88.0225 190.851 90.7552 182.568 88.4494 169.684C88.4708 165.969 96.797 160.343 96.797 160.343Z" fill="#C39969"/>
<path d="M81.8091 135.151C65.8185 140.553 59.7233 152.914 57.5137 160.781C58.9761 166.3 64.1106 171.904 64.1106 171.904C64.1106 171.904 65.968 156.853 80.2933 149.274C79.9517 143.627 80.9018 138.471 81.8091 135.151Z" fill="#C39969"/>
<path d="M198.888 114.965C196.689 111.923 194.458 108.892 192.281 105.828C190.285 103.031 189.676 100.01 190.445 96.5731C192.313 88.2042 188.438 77.0706 186.975 74.3379C183.944 74.6261 159.584 82.568 149.049 89.8374C149.049 89.8374 149.049 89.8374 149.038 89.8374C142.985 93.4561 138.95 96.6478 130.507 104.867C129.909 106.885 128.553 112.532 125.137 117.463C129.717 116.108 137.573 111.614 141.47 108.262C141.299 111.037 141.171 114.037 140.979 117.186C134.221 123.783 122.81 127.284 122.81 127.284C122.81 127.284 121.593 134.778 118.071 139.357C125.543 138.375 134.382 134.351 139.431 130.636C139.025 132.792 138.523 134.97 137.894 137.169C135.684 144.769 133.079 151.558 130.293 157.621C120.195 172.833 105.816 179.803 101.482 198.622C135.94 214.005 172.8 204.333 181.82 195.847C177.785 191.214 160.428 175.117 162.573 162.83C163.609 156.629 167.772 149.38 171.711 149.573C178.382 149.893 193.316 153.095 190.936 141.887C190.509 139.709 190.285 136.806 192.729 135.653C195.697 134.244 194.683 131.597 193.188 130.881C192.473 130.529 192.057 130.22 192.964 129.728C194.747 128.768 195.515 127.53 193.861 125C192.302 122.609 192.932 121.637 195.28 119.961C196.241 119.278 197.255 118.638 198.259 118.029C199.753 117.122 199.934 116.364 198.92 114.955L198.888 114.965ZM162.723 117.613C158.581 112.243 149.027 105.583 149.027 105.583C160.236 110.536 165.808 113.322 167.59 118.958C169.362 124.594 170.163 137.179 170.163 137.179C170.163 137.179 168.38 124.936 162.723 117.613ZM180.24 103.554C177.165 103.725 166.736 100.17 166.736 100.17C166.736 100.17 176.792 96.6585 180.24 96.6585C183.869 96.6585 183.912 103.352 180.24 103.554Z" fill="#C39969"/>
<path d="M132.289 137.179C128.852 138.61 125.447 139.912 121.828 140.553C121.828 140.553 120.888 146.53 114.665 153.8C108.111 161.443 100.18 164.058 100.18 164.058C101.034 167.773 101.503 171.263 101.375 174.402C101.375 174.402 112.989 171.669 121.838 161.293C132.278 149.06 132.278 137.179 132.278 137.179H132.289Z" fill="#C39969"/>
<path d="M132.898 121.018C133.144 119.065 133.208 117.549 133.122 115.788C130.966 116.994 128.158 118.253 124.839 119.182C124.636 120.997 124.252 123.014 123.729 124.904C126.034 124.381 131.062 122.203 132.898 121.018Z" fill="#C39969"/>
<path d="M20.3018 108.433C19.8001 110.931 19.4265 113.439 19.1489 115.969C14.9645 117.666 11.0896 120.047 7.38549 122.609C6.48883 123.217 6.47815 124.616 7.38549 125.224C11.0362 127.754 14.8364 130.113 18.9461 131.832C19.213 135.087 19.6506 138.332 20.3018 141.545C22.5221 130.647 22.5008 119.332 20.3018 108.422V108.433ZM11.0149 123.932C13.865 121.819 16.619 119.534 19.0422 116.93C18.5938 121.531 18.5511 126.174 18.8714 130.785C16.4909 128.245 13.8116 126.014 11.0255 123.932H11.0149Z" fill="#C39969"/>
<path d="M245.536 122.619C241.832 120.057 237.957 117.677 233.773 115.98C233.495 113.45 233.122 110.93 232.62 108.443C230.421 119.342 230.4 130.657 232.62 141.567C233.271 138.354 233.709 135.108 233.976 131.853C238.086 130.134 241.896 127.775 245.536 125.245C246.433 124.637 246.433 123.238 245.536 122.63V122.619ZM234.061 130.785C234.381 126.174 234.328 121.541 233.89 116.93C236.314 119.534 239.057 121.808 241.918 123.932C239.132 126.014 236.452 128.245 234.072 130.785H234.061Z" fill="#C39969"/>
<path d="M0.392578 118.638C1.0544 81.458 20.6317 45.5699 50.7234 23.9218C68.6781 10.8988 90.2729 2.80739 112.412 1.34497C52.8797 10.1302 6.41306 58.7531 0.392578 118.638Z" fill="#656565"/>
<path d="M55.0371 44.9615C71.0277 31.6823 90.8611 23.1532 111.452 20.8262C91.2454 24.178 72.1485 33.5396 57.1507 47.3739L55.0478 44.9615H55.0371Z" fill="#656565"/>
<path d="M21.9883 103.159C23.6215 93.563 26.589 84.1159 30.8269 75.1813L33.645 76.7077C28.6065 84.8738 24.6569 93.7978 21.9883 103.159Z" fill="#656565"/>
<path d="M252.935 128.683C253.245 146.702 249.658 164.902 242.335 181.629L239.442 180.263C247.544 164.411 252.188 146.702 252.946 128.694L252.935 128.683Z" fill="#656565"/>
<path d="M232.173 145.325C230.732 156.864 227.359 168.243 222.203 178.854L219.385 177.327C225.32 167.528 229.675 156.683 232.173 145.325Z" fill="#656565"/>
<path d="M0.137584 128.682C0.895482 146.691 5.53894 164.41 13.641 180.252L10.7482 181.618C3.41469 164.901 -0.17198 146.701 0.137584 128.682Z" fill="#656565"/>
<path d="M20.8994 145.324C23.3973 156.682 27.7525 167.528 33.6876 177.327L30.8695 178.853C25.703 168.243 22.3405 156.864 20.8994 145.324Z" fill="#656565"/>
<path d="M133.943 0C131.734 6.73568 131.744 14.0905 133.943 20.8262C136.132 14.0905 136.153 6.73568 133.943 0Z" fill="#C39969"/>
<path d="M133.943 0C131.21 2.27369 128.734 4.86763 126.535 7.68573C124.347 4.86763 121.87 2.27369 119.127 0C116.938 6.73568 116.917 14.0905 119.127 20.8262C121.87 18.5525 124.347 15.9586 126.535 13.1405C128.734 15.9479 131.21 18.5418 133.943 20.8262C132.566 17.1541 130.719 13.6635 128.52 10.4184C130.719 7.16267 132.566 3.67207 133.943 0.0106746V0ZM119.127 20.8262C121.336 14.1012 121.315 6.73569 119.127 0.0106746C120.504 3.68274 122.351 7.17334 124.549 10.4184C122.351 13.6635 120.504 17.1541 119.127 20.8262Z" fill="#C39969"/>
<path d="M140.658 1.34497C185.214 4.09902 226.215 34.2441 243.295 75.3201C249.059 88.8768 252.283 103.544 252.646 118.253C251.023 103.683 247.073 89.5066 241.01 76.3342C222.906 36.4218 183.986 7.68569 140.658 1.34497Z" fill="#656565"/>
<path d="M141.619 20.8262C163.246 22.4487 184.19 32.1199 200.244 46.6481C216.171 61.3897 227.56 81.3192 231.201 102.743C228.062 92.4422 223.771 82.5788 218.231 73.5054C201.536 45.9435 173.237 26.9427 141.619 20.8368V20.8262Z" fill="#656565"/>
</svg>
